<svg xmlns="http://www.w3.org/2000/svg" viewBox="0 0 256 256">
  <!-- typebud capybara: OPTIONAL personality item: a yuzu balanced on the crown. -->
  <circle cx="148" cy="41" r="12.5" fill="#FFCC4D"/>
  <path d="M155 32 C161 36 163 44 158 50 C154 54 147 54 142 52 C150 50 157 44 155 32 Z" fill="#F0A93A"/>
  <circle cx="148" cy="41" r="12.5" fill="none" stroke="#3B2A1E" stroke-width="4.5"/>
  <circle cx="142" cy="40" r="1.1" fill="#F0A93A"/>
  <circle cx="146" cy="46" r="1.1" fill="#F0A93A"/>
  <circle cx="152" cy="43" r="1.1" fill="#F0A93A"/>
  <circle cx="147" cy="36" r="1.1" fill="#F0A93A"/>
  <path d="M150 30 Q151 27.5 153 27 M153 29.5 Q160 25.5 166 30 Q159 35 153 29.5 Z" fill="#86C27A" stroke="#3B2A1E" stroke-width="3" stroke-linecap="round" stroke-linejoin="round"/>
  <path d="M140.5 36.5 Q142 33.5 145 33" fill="none" stroke="#FFFFFF" stroke-width="2.2" stroke-linecap="round" stroke-linejoin="round"/>
</svg>
